<svg width="21" height="25" viewBox="0 0 21 25" fill="none" xmlns="http://www.w3.org/2000/svg">
<path d="M4.66667 8.16667V5.83333C4.66667 4.28624 5.28125 2.80251 6.37521 1.70854C7.46917 0.614582 8.9529 0 10.5 0C12.0471 0 13.5308 0.614582 14.6248 1.70854C15.7188 2.80251 16.3333 4.28624 16.3333 5.83333V8.16667H19.8333C20.1428 8.16667 20.4395 8.28958 20.6583 8.50838C20.8771 8.72717 21 9.02391 21 9.33333V23.3333C21 23.6428 20.8771 23.9395 20.6583 24.1583C20.4395 24.3771 20.1428 24.5 19.8333 24.5H1.16667C0.857247 24.5 0.560501 24.3771 0.341709 24.1583C0.122916 23.9395 0 23.6428 0 23.3333V9.33333C0 9.02391 0.122916 8.72717 0.341709 8.50838C0.560501 8.28958 0.857247 8.16667 1.16667 8.16667H4.66667ZM4.66667 10.5H2.33333V22.1667H18.6667V10.5H16.3333V12.8333H14V10.5H7V12.8333H4.66667V10.5ZM7 8.16667H14V5.83333C14 4.90508 13.6313 4.01484 12.9749 3.35846C12.3185 2.70208 11.4283 2.33333 10.5 2.33333C9.57174 2.33333 8.6815 2.70208 8.02513 3.35846C7.36875 4.01484 7 4.90508 7 5.83333V8.16667Z" fill="#AA8232"/>
</svg>
