<svg width="26" height="21" viewBox="0 0 26 21" fill="none" xmlns="http://www.w3.org/2000/svg">
<path d="M2.24799 0L24.748 0C25.0795 0 25.3974 0.117143 25.6319 0.325658C25.8663 0.534174 25.998 0.816982 25.998 1.11187V18.9018C25.998 19.1966 25.8663 19.4794 25.6319 19.688C25.3974 19.8965 25.0795 20.0136 24.748 20.0136H2.24799C1.91647 20.0136 1.59852 19.8965 1.3641 19.688C1.12968 19.4794 0.997986 19.1966 0.997986 18.9018L0.997986 1.11187C0.997986 0.816982 1.12968 0.534174 1.3641 0.325658C1.59852 0.117143 1.91647 0 2.24799 0ZM23.498 10.0068H3.49799V17.7899H23.498V10.0068ZM23.498 5.55934V2.22374L3.49799 2.22374V5.55934L23.498 5.55934Z" fill="#333333"/>
</svg>
