<svg width="13" height="15" viewBox="0 0 13 15" fill="none" xmlns="http://www.w3.org/2000/svg">
<path d="M9.65589 10.4392L9.77323 10.5572L9.89189 10.4392C10.0312 10.2999 10.1965 10.1894 10.3785 10.114C10.5605 10.0386 10.7556 9.99983 10.9526 9.99983C11.1495 9.99983 11.3446 10.0386 11.5266 10.114C11.7086 10.1894 11.8739 10.2999 12.0132 10.4392C12.1525 10.5785 12.263 10.7438 12.3384 10.9258C12.4138 11.1078 12.4526 11.3029 12.4526 11.4998C12.4526 11.6968 12.4138 11.8919 12.3384 12.0739C12.263 12.2559 12.1525 12.4212 12.0132 12.5605L9.77323 14.7998L7.53456 12.5605C7.25325 12.2792 7.09522 11.8977 7.09522 11.4998C7.09522 11.102 7.25325 10.7205 7.53456 10.4392C7.81587 10.1579 8.1974 9.99983 8.59523 9.99983C8.99305 9.99983 9.37459 10.1579 9.65589 10.4392ZM5.76189 9.33317V10.6665C4.70103 10.6665 3.68361 11.0879 2.93347 11.8381C2.18332 12.5882 1.76189 13.6056 1.76189 14.6665H0.428558C0.428574 13.2809 0.96785 11.9497 1.93221 10.9547C2.89656 9.95974 4.21028 9.37914 5.59523 9.33584L5.76189 9.33317ZM5.76189 0.666504C7.97189 0.666504 9.76189 2.4565 9.76189 4.6665C9.76226 5.70152 9.36129 6.69637 8.64329 7.44185C7.92529 8.18732 6.9462 8.62536 5.91189 8.66384L5.76189 8.6665C3.55189 8.6665 1.76189 6.8765 1.76189 4.6665C1.76152 3.63148 2.16249 2.63664 2.8805 1.89116C3.5985 1.14568 4.57759 0.707652 5.61189 0.669171L5.76189 0.666504ZM5.76189 1.99984C4.28856 1.99984 3.09523 3.19317 3.09523 4.6665C3.09523 6.13984 4.28856 7.33317 5.76189 7.33317C7.23523 7.33317 8.42856 6.13984 8.42856 4.6665C8.42856 3.19317 7.23523 1.99984 5.76189 1.99984Z" fill="black"/>
</svg>
