<svg width="21" height="20" viewBox="0 0 21 20" fill="none" xmlns="http://www.w3.org/2000/svg">
<path d="M15.225 0C18.4149 0 21 2.625 21 6.3C21 13.65 13.125 17.85 10.5 19.425C7.875 17.85 0 13.65 0 6.3C0 2.625 2.625 0 5.775 0C7.728 0 9.45 1.05 10.5 2.1C11.55 1.05 13.272 0 15.225 0ZM11.4807 16.3842C12.4057 15.8004 13.2405 15.2198 14.0217 14.5982C17.1517 12.1097 18.9 9.39015 18.9 6.3C18.9 3.822 17.2861 2.1 15.225 2.1C14.0952 2.1 12.873 2.6985 11.9847 3.5847L10.5 5.0694L9.0153 3.5847C8.127 2.6985 6.9048 2.1 5.775 2.1C3.738 2.1 2.1 3.8388 2.1 6.3C2.1 9.3912 3.8493 12.1097 6.97725 14.5982C7.7595 15.2198 8.59425 15.8004 9.5193 16.3832C9.83325 16.5816 10.144 16.7717 10.5 16.9838C10.8559 16.7717 11.1667 16.5816 11.4807 16.3842Z" fill="#333333"/>
</svg>
