<svg width="29" height="20" viewBox="0 0 29 20" fill="none" xmlns="http://www.w3.org/2000/svg">
<path d="M10.5798 15.6807C10.4262 16.6393 9.88899 17.5163 9.06679 18.1509C8.2446 18.7854 7.19264 19.1347 6.10413 19.1347C5.01561 19.1347 3.96365 18.7854 3.14146 18.1509C2.31926 17.5163 1.78205 16.6393 1.6285 15.6807H0.291626V1.89356C0.291626 1.58884 0.427712 1.29661 0.669946 1.08114C0.912181 0.865677 1.24072 0.744629 1.58329 0.744629H19.6666C20.0092 0.744629 20.3377 0.865677 20.58 1.08114C20.8222 1.29661 20.9583 1.58884 20.9583 1.89356V4.19142H24.8333L28.7083 8.85148V15.6807H26.0798C25.9262 16.6393 25.389 17.5163 24.5668 18.1509C23.7446 18.7854 22.6926 19.1347 21.6041 19.1347C20.5156 19.1347 19.4636 18.7854 18.6415 18.1509C17.8193 17.5163 17.2821 16.6393 17.1285 15.6807H10.5798ZM18.375 3.04249H2.87496V12.2914C3.3846 11.8286 4.0124 11.4822 4.70493 11.2816C5.39746 11.081 6.13421 11.0323 6.85249 11.1394C7.57076 11.2466 8.24929 11.5066 8.83033 11.8972C9.41137 12.2878 9.87771 12.7975 10.1897 13.3829H17.5186C17.7356 12.9773 18.0262 12.6085 18.375 12.2914V3.04249ZM20.9583 9.93607H26.125V9.60862L23.5313 6.48928H20.9583V9.93607ZM21.6041 16.8296C22.1182 16.8296 22.6111 16.648 22.9746 16.3247C23.3381 16.0014 23.5423 15.5629 23.5423 15.1057C23.5423 14.6485 23.3381 14.21 22.9746 13.8866C22.6111 13.5633 22.1182 13.3817 21.6041 13.3817C21.0901 13.3817 20.5971 13.5633 20.2336 13.8866C19.8702 14.21 19.666 14.6485 19.666 15.1057C19.666 15.5629 19.8702 16.0014 20.2336 16.3247C20.5971 16.648 21.0901 16.8296 21.6041 16.8296ZM8.04163 15.1063C8.04163 14.8799 7.99151 14.6558 7.89414 14.4467C7.79677 14.2376 7.65406 14.0477 7.47415 13.8876C7.29423 13.7276 7.08064 13.6007 6.84557 13.514C6.61051 13.4274 6.35856 13.3829 6.10413 13.3829C5.84969 13.3829 5.59774 13.4274 5.36268 13.514C5.12761 13.6007 4.91402 13.7276 4.73411 13.8876C4.55419 14.0477 4.41148 14.2376 4.31411 14.4467C4.21674 14.6558 4.16663 14.8799 4.16663 15.1063C4.16663 15.5633 4.37075 16.0017 4.73411 16.3249C5.09746 16.6481 5.59027 16.8296 6.10413 16.8296C6.61798 16.8296 7.11079 16.6481 7.47415 16.3249C7.8375 16.0017 8.04163 15.5633 8.04163 15.1063Z" fill="#333333"/>
</svg>
