<svg width="20" height="20" viewBox="0 0 20 20" fill="none" xmlns="http://www.w3.org/2000/svg">
<path d="M20 10C20 15.523 15.523 20 10 20C4.477 20 -1.95696e-07 15.523 -4.37114e-07 10C-6.78532e-07 4.477 4.477 -1.95696e-07 10 -4.37114e-07C15.523 -6.78532e-07 20 4.477 20 10ZM18 10C18 7.87827 17.1571 5.84344 15.6569 4.34314C14.1566 2.84285 12.1217 2 10 2C7.87827 2 5.84344 2.84285 4.34315 4.34315C2.84285 5.84344 2 7.87827 2 10C2 12.1217 2.84285 14.1566 4.34315 15.6569C5.84344 17.1571 7.87827 18 10 18C12.1217 18 14.1566 17.1571 15.6569 15.6569C17.1571 14.1566 18 12.1217 18 10ZM7 15L3.5 12L7 9L7 11L11 11L11 13L7 13L7 15ZM13 5L16.5 8L13 11L13 9L9 9L9 7L13 7L13 5Z" fill="#333333"/>
</svg>
