<svg width="161" height="42" viewBox="0 0 161 42" fill="none" xmlns="http://www.w3.org/2000/svg">
<path d="M67.8614 27.9502V12.248H64.7428V18.2589H56.8217V13.672C56.8222 13.4852 56.7858 13.3001 56.7145 13.1274C56.6432 12.9546 56.5385 12.7976 56.4064 12.6653C56.2742 12.5331 56.1171 12.4281 55.9442 12.3565C55.7713 12.2849 55.586 12.248 55.3988 12.248H53.7148V27.9502H56.8334V21.0367H64.7544V26.5262C64.7544 26.9039 64.9048 27.2661 65.1723 27.5331C65.4399 27.8001 65.8028 27.9502 66.1812 27.9502H67.8614Z" fill="#3A334F"/>
<path d="M75.2031 12.248V27.9502H76.8833C77.2617 27.9502 77.6246 27.8001 77.8922 27.5331C78.1597 27.2661 78.31 26.9039 78.31 26.5262V12.248H75.2031Z" fill="#3A334F"/>
<path d="M99.8023 27.9502V12.248H96.8125V22.7524L88.2676 12.248H85.4375V27.9502H86.9968C87.3752 27.9502 87.7381 27.8001 88.0057 27.5331C88.2732 27.2661 88.4236 26.9039 88.4236 26.5262V17.189L97.2217 27.9657L99.8023 27.9502Z" fill="#3A334F"/>
<path d="M114.625 11.8667C113.505 11.8484 112.392 12.0514 111.351 12.464C110.31 12.8767 109.361 13.4908 108.559 14.2711C107.755 15.0188 107.119 15.9276 106.692 16.9381C106.264 17.9485 106.056 19.0376 106.08 20.1341C106.062 21.2332 106.273 22.3241 106.699 23.3375C107.126 24.3509 107.76 25.2645 108.559 26.0204C110.188 27.5799 112.368 28.4354 114.625 28.4014C115.744 28.4229 116.857 28.2232 117.898 27.8139C118.94 27.4046 119.89 26.7938 120.694 26.0166C121.493 25.2605 122.126 24.3467 122.552 23.3333C122.979 22.3199 123.189 21.2291 123.17 20.1302C123.194 19.0325 122.984 17.9422 122.553 16.9319C122.122 15.9217 121.48 15.0146 120.671 14.2711C119.875 13.4875 118.93 12.8708 117.892 12.4572C116.853 12.0436 115.743 11.8415 114.625 11.8629V11.8667ZM118.433 24.0013C117.942 24.5127 117.35 24.917 116.695 25.1888C116.039 25.4607 115.335 25.5942 114.625 25.5808C113.914 25.595 113.208 25.4643 112.55 25.1967C111.892 24.9291 111.295 24.5303 110.797 24.0246C110.286 23.5153 109.885 22.9078 109.617 22.2391C109.349 21.5703 109.22 20.8542 109.238 20.1341C109.227 19.4219 109.359 18.7146 109.627 18.0544C109.894 17.3941 110.292 16.7942 110.797 16.2903C111.29 15.7729 111.885 15.3632 112.544 15.0873C113.204 14.8114 113.914 14.6752 114.629 14.6874C115.344 14.6752 116.054 14.8114 116.713 15.0873C117.373 15.3632 117.968 15.7729 118.461 16.2903C118.965 16.7944 119.363 17.3943 119.631 18.0545C119.898 18.7147 120.031 19.4219 120.02 20.1341C120.036 20.856 119.904 21.5737 119.632 22.2427C119.36 22.9118 118.953 23.5182 118.437 24.0246" fill="#3A334F"/>
<path d="M134.925 12.248H129.023V27.9502H134.949C137.646 27.9502 139.724 27.2382 141.127 25.8376C142.531 24.437 143.291 22.5112 143.291 20.1341C143.291 17.757 142.577 15.8779 141.104 14.4345C139.63 12.9911 137.595 12.248 134.925 12.248ZM134.715 25.1723H132.13V15.0259H134.68C136.664 15.0259 138.087 15.4888 138.901 16.4031C139.716 17.3174 140.149 18.5585 140.149 20.1341C140.149 23.5267 138.367 25.1918 134.691 25.1918" fill="#3A334F"/>
<path d="M159.9 21.2468V18.5234H152.248V15.022H160.406V12.2441H149.156V27.9502H159.14C159.519 27.9502 159.883 27.7997 160.151 27.532C160.419 27.2642 160.57 26.901 160.57 26.5223V25.1723H152.267V21.2468H159.9Z" fill="#3A334F"/>
<path d="M34.6431 27.9144C35.771 25.8193 36.4118 23.4976 36.5181 21.1216L40.3228 21.2811L41.1336 20.503L40.3228 19.7249L36.522 19.8844C36.4514 17.4989 35.8397 15.1604 34.7328 13.0449L38.0657 11.3058L38.3776 10.2359L37.2939 9.97528L34.1247 11.9789C32.8557 9.95001 31.1482 8.22995 29.1272 6.94457L31.1192 3.83216L30.8541 2.7467L29.7821 3.06184L28.0669 6.34154C25.9456 5.21071 23.5939 4.57737 21.1906 4.48966L21.3464 0.805337L20.5668 0L19.7872 0.805337L19.9392 4.48966C17.5371 4.57782 15.1868 5.21115 13.0667 6.34154L11.3515 3.06184L10.2795 2.7467L10.0144 3.83216L12.0064 6.94457C9.98519 8.23093 8.27661 9.95074 7.00502 11.9789L3.83975 9.97528L2.75604 10.2359L3.06782 11.3058L6.40078 13.0449C5.29393 15.1604 4.68223 17.4989 4.61158 19.8844L0.80695 19.7249L0 20.503L0.80695 21.2811L4.61548 21.1216C4.71992 23.4979 5.36081 25.82 6.49043 27.9144L3.06782 29.7002L2.75604 30.7701L3.83975 31.0308L7.11028 28.961C8.391 30.9553 10.0975 32.6426 12.1078 33.902L10.0144 37.1972L10.2795 38.2788L11.3515 37.9636L13.1603 34.505C15.2592 35.6081 17.5802 36.2251 19.9509 36.3102L19.7872 40.2201L20.5668 41.0255L21.3464 40.2201L21.1828 36.3102C23.5533 36.2246 25.8742 35.6076 27.9734 34.505L29.7821 37.9636L30.8541 38.2788L31.1192 37.1972L29.0375 33.902C31.0498 32.6437 32.7578 30.9563 34.0389 28.961L37.3095 31.0308L38.3932 30.7701L38.0813 29.7002L34.6431 27.9144ZM28.332 32.8165L26.3088 29.6107L25.6266 29.9998L27.3886 33.3651C25.4605 34.3781 23.329 34.9458 21.1515 35.0263L20.9917 31.2447H20.2121L20.0522 35.0263C17.8748 34.9458 15.7432 34.3781 13.8151 33.3651L15.5771 29.9998L14.8949 29.6107L12.8562 32.8165C11.0041 31.6598 9.43186 30.1079 8.25242 28.2724L11.4957 26.2182L11.1059 25.5373L7.6911 27.3192C6.6509 25.3916 6.0606 23.2544 5.96424 21.0671L9.86242 20.9037V20.1256L5.96424 19.9622C6.02949 17.7657 6.59187 15.6123 7.60926 13.6635L11.1176 15.492L11.5074 14.8112L8.16277 12.6947C9.3289 10.8237 10.9008 9.23764 12.7626 8.05337L14.9066 11.4226L15.5888 11.0335L13.7333 7.48924C15.6855 6.44947 17.8488 5.86549 20.06 5.78131L20.2315 9.79243H21.0112L21.1828 5.78131C23.3825 5.86655 25.5344 6.44639 27.4783 7.47757L25.6227 11.0218L26.3049 11.4109L28.445 8.04169C30.3089 9.22478 31.8823 10.811 33.0488 12.6831L29.7041 14.7995L30.0939 15.4804L33.6023 13.6518C34.6197 15.6007 35.1821 17.754 35.2473 19.9506L31.3491 20.114V20.8921L35.2473 21.0555C35.151 23.2427 34.5607 25.38 33.5205 27.3075L30.1056 25.5257L29.7158 26.2065L32.9591 28.2607C31.7797 30.0962 30.2074 31.6481 28.3554 32.8048" fill="#3A334F"/>
<path d="M16.4379 1.63093L15.2802 0.681641L14.7539 2.07834L16.1689 3.9808L16.4379 1.63093Z" fill="#3A334F"/>
<path d="M17.8021 10.0841C18.0672 10.0141 18.0711 10.018 18.1919 9.99077L17.5877 7.22461C17.4239 7.26351 17.3304 7.27908 17.0654 7.34911C16.8003 7.41913 16.7184 7.45026 16.5547 7.50084L17.4123 10.197C17.537 10.1619 17.5331 10.1542 17.8021 10.0841Z" fill="#3A334F"/>
<path d="M8.53405 8.38085L7.59069 6.20995L6.11328 5.96484L6.35887 7.43935L8.53405 8.38085Z" fill="#3A334F"/>
<path d="M13.0067 12.8381C13.2017 12.6435 13.2056 12.6474 13.2991 12.5579L11.3929 10.4648C11.2682 10.5816 11.1941 10.6438 11.0031 10.8539C10.8121 11.064 10.7498 11.1107 10.6367 11.2429L12.73 13.1532C12.8197 13.0559 12.8118 13.0559 13.0067 12.8614" fill="#3A334F"/>
<path d="M4.12597 15.9982L2.21586 14.5898L0.820312 15.1151L1.76757 16.2705L4.12597 15.9982Z" fill="#3A334F"/>
<path d="M10.2363 17.6395C10.3065 17.3749 10.3143 17.3749 10.3494 17.2504L7.64785 16.3906C7.60107 16.5501 7.56993 16.6435 7.49586 16.9042C7.4218 17.1648 7.41008 17.2543 7.37109 17.4216L10.1427 18.0285C10.17 17.9001 10.1661 17.904 10.2363 17.6395Z" fill="#3A334F"/>
<path d="M1.76757 24.5293L0.820312 25.6809L2.21586 26.2061L4.12597 24.7977L1.76757 24.5293Z" fill="#3A334F"/>
<path d="M10.1427 22.7715L7.37109 23.3745C7.41008 23.5418 7.4296 23.6352 7.49976 23.8997C7.56993 24.1643 7.60107 24.246 7.64785 24.4055L10.3533 23.5496C10.3143 23.4251 10.3104 23.429 10.2402 23.1605C10.17 22.8921 10.1739 22.896 10.1427 22.7715Z" fill="#3A334F"/>
<path d="M6.11328 34.832L7.59069 34.5869L8.53405 32.416L6.35887 33.3614L6.11328 34.832Z" fill="#3A334F"/>
<path d="M12.7339 27.6582L10.6367 29.5684C10.7498 29.6929 10.8121 29.763 11.007 29.9575C11.2019 30.152 11.2682 30.2065 11.3968 30.3232L13.3069 28.2301C13.2134 28.1445 13.2095 28.1484 13.0146 27.9539C12.8196 27.7594 12.8236 27.7594 12.7378 27.6621" fill="#3A334F"/>
<path d="M14.7539 38.7189L15.2802 40.1156L16.4379 39.1702L16.1689 36.8164L14.7539 38.7189Z" fill="#3A334F"/>
<path d="M17.4201 30.5996L16.5625 33.2957C16.7262 33.3463 16.8159 33.3774 17.081 33.4475C17.3461 33.5175 17.4318 33.5331 17.5955 33.572L18.2036 30.8097C18.0789 30.7786 18.0789 30.7864 17.8138 30.7124C17.5487 30.6385 17.5487 30.6385 17.424 30.5996" fill="#3A334F"/>
<path d="M24.7148 39.1702L25.8687 40.1156L26.395 38.7189L24.9838 36.8164L24.7148 39.1702Z" fill="#3A334F"/>
<path d="M23.3508 30.7124C23.0857 30.7825 23.0818 30.7786 22.9609 30.8058L23.5652 33.572C23.7289 33.5331 23.8225 33.5175 24.0876 33.4475C24.3526 33.3774 24.4345 33.3463 24.5983 33.2957L23.7406 30.5996C23.6158 30.6346 23.6197 30.6424 23.3508 30.7124Z" fill="#3A334F"/>
<path d="M32.6133 32.416L33.5605 34.5869L35.0341 34.832L34.7885 33.3614L32.6133 32.416Z" fill="#3A334F"/>
<path d="M28.1439 27.946C27.949 28.1405 27.9451 28.1366 27.8477 28.2261L29.7578 30.3192C29.8826 30.2025 29.9566 30.1402 30.1476 29.9302C30.3387 29.7201 30.401 29.6734 30.514 29.5411L28.4207 27.6309C28.331 27.7281 28.3349 27.7281 28.1439 27.9226" fill="#3A334F"/>
<path d="M37.0234 24.7977L38.9296 26.2061L40.3291 25.6809L39.3818 24.5293L37.0234 24.7977Z" fill="#3A334F"/>
<path d="M30.9138 23.1566C30.8437 23.4212 30.8359 23.4212 30.7969 23.5457L33.4983 24.4055C33.549 24.246 33.5802 24.1526 33.6504 23.8919C33.7205 23.6313 33.74 23.5418 33.775 23.3745L31.0074 22.7676C30.9762 22.896 30.984 22.8921 30.9138 23.1566Z" fill="#3A334F"/>
<path d="M39.3818 16.2705L40.3291 15.1151L38.9296 14.5898L37.0234 15.9982L39.3818 16.2705Z" fill="#3A334F"/>
<path d="M31.0074 18.0246L33.775 17.4216C33.74 17.2543 33.7205 17.1609 33.6504 16.8964C33.5802 16.6318 33.549 16.5501 33.4983 16.3906L30.7969 17.2465C30.8359 17.371 30.8398 17.3671 30.9099 17.6356C30.9801 17.904 30.9762 17.9001 31.0074 18.0246Z" fill="#3A334F"/>
<path d="M35.0341 5.96484L33.5605 6.20995L32.6133 8.38085L34.7924 7.43935L35.0341 5.96484Z" fill="#3A334F"/>
<path d="M28.4168 13.1377L30.514 11.2313C30.401 11.1068 30.3347 11.0368 30.1437 10.8423C29.9527 10.6477 29.8826 10.5933 29.7539 10.4766L27.8438 12.5697C27.9373 12.6553 27.9412 12.6514 28.1322 12.8459C28.3232 13.0404 28.3232 13.0404 28.4129 13.1377" fill="#3A334F"/>
<path d="M26.395 2.07834L25.8687 0.681641L24.7148 1.63093L24.9838 3.9808L26.395 2.07834Z" fill="#3A334F"/>
<path d="M23.7328 10.197L24.5943 7.50084C24.4306 7.45026 24.3409 7.41913 24.0759 7.34911C23.8108 7.27908 23.725 7.26351 23.5613 7.22461L22.9531 9.98687C23.0779 10.018 23.0779 10.0102 23.3429 10.0841C23.608 10.1581 23.608 10.1581 23.7328 10.197Z" fill="#3A334F"/>
</svg>
